<?xml version="1.0" standalone="no"?>
<!DOCTYPE svg PUBLIC "-//W3C//DTD SVG 1.1//EN" "http://www.w3.org/Graphics/SVG/1.1/DTD/svg11.dtd">
<svg t="1522834202559" class="icon" style="" viewBox="0 0 1024 1024" version="1.1"
  xmlns="http://www.w3.org/2000/svg" p-id="10670"
  xmlns:xlink="http://www.w3.org/1999/xlink" width="80" height="80">
  <defs>
    <style type="text/css"></style>
  </defs>
  <path d="M819.503104 275.61472c-10.2912-130.65728-119.89504-233.84576-253.2352-233.84576-133.3248 0-242.92352 103.168-253.2352 233.8048h-0.8448c-113.69984 0-206.20288 92.48256-206.20288 206.14656 0 113.67424 92.50304 206.1568 206.20288 206.1568h505.64608c113.69984 0 206.20288-92.48256 206.20288-206.1568 0-113.1008-91.60192-205.19936-204.53376-206.1056z m-1.66912 364.65152H312.187904c-87.43424 0-158.56128-71.12192-158.56128-158.54592 0-87.41376 71.12704-158.53568 158.56128-158.53568h20.12672c7.53152 0 14.16192-3.5584 18.52928-9.0112 5.42208-4.36224 8.96-10.97216 8.96-18.46784 0-113.7664 92.6208-206.32576 206.464-206.32576s206.45888 92.55936 206.45888 206.32576c0 0.62976 0.13824 1.21856 0.18432 1.83808-0.04608 0.6144-0.18432 1.20832-0.18432 1.83808a23.81312 23.81312 0 0 0 23.82336 23.808h21.27872c87.42912 0 158.56128 71.12192 158.56128 158.53568 0.00512 87.41888-71.12704 158.5408-158.55616 158.5408z m-387.15904 204.86144a17.90976 17.90976 0 0 0 17.47968 13.7984 17.98656 17.98656 0 0 0 17.5104-22.13888l-4.49024-18.81088 18.69312 4.992a18.01216 18.01216 0 0 0 22.02112-12.71808 17.8176 17.8176 0 0 0-1.80736-13.63456 17.88416 17.88416 0 0 0-10.9312-8.3712l-16.72192-4.46464 12.57472-11.88864a17.9968 17.9968 0 0 0 0.70144-25.41568c-6.56384-6.92736-18.5088-7.25504-25.42592-0.69632l-13.33248 12.60544-4.25984-17.85344c-2.26304-9.48736-12.07296-15.54944-21.66784-13.30688a17.83296 17.83296 0 0 0-11.14112 8.07424 17.82784 17.82784 0 0 0-2.176 13.58848l4.49024 18.80576-18.69312-4.992c-9.40544-2.46272-19.51232 3.35872-22.016 12.71808a17.8176 17.8176 0 0 0 1.80224 13.63456 17.92 17.92 0 0 0 10.9312 8.38144l16.72192 4.46464-12.57472 11.89376a17.85856 17.85856 0 0 0-5.61664 12.55424 17.8688 17.8688 0 0 0 4.9152 12.8512 18.09408 18.09408 0 0 0 13.07136 5.61664c4.61824 0 9.00096-1.7408 12.35968-4.91008l13.33248-12.60544 4.2496 17.82784z m-102.71232 66.4064l-16.72192-4.46464 12.57472-11.88864c3.49184-3.3024 5.48352-7.7568 5.61664-12.55424s-1.6128-9.36448-4.91008-12.8512c-6.5536-6.92224-18.49344-7.23456-25.4208-0.69632l-13.33248 12.61056-4.25984-17.85344c-2.26816-9.49248-12.10368-15.57504-21.66784-13.30688a17.9968 17.9968 0 0 0-13.31712 21.6576l4.48512 18.80064-18.688-4.992c-9.43104-2.46272-19.51232 3.35872-22.02112 12.71808a18.00192 18.00192 0 0 0 12.72832 22.01088l16.72704 4.46464-12.57472 11.88864a17.98656 17.98656 0 0 0-0.70656 25.40544 18.0736 18.0736 0 0 0 13.07136 5.61664c4.61312 0 9.00096-1.7408 12.35968-4.91008l13.33248-12.61056 4.25984 17.8432a17.91488 17.91488 0 0 0 17.47968 13.7984 17.9968 17.9968 0 0 0 17.5104-22.14912l-4.49024-18.80064 18.688 4.992a18.00192 18.00192 0 0 0 22.02112-12.7232 18.0224 18.0224 0 0 0-12.74368-22.00576z m-106.9312-66.4064a17.90976 17.90976 0 0 0 17.47968 13.7984c1.40288 0 2.81088-0.16896 4.18304-0.49152a17.87904 17.87904 0 0 0 11.15136-8.064 17.83808 17.83808 0 0 0 2.17088-13.58848l-4.49024-18.81088 18.688 4.992a18.01216 18.01216 0 0 0 22.02624-12.71808c1.23904-4.63872 0.59904-9.47712-1.80736-13.63456s-6.29248-7.13216-10.9312-8.3712l-16.72192-4.46464 12.57472-11.88864a18.00192 18.00192 0 0 0 0.70144-25.41568c-6.5536-6.90688-18.49856-7.2448-25.4208-0.69632l-13.3376 12.61056-4.25984-17.85344c-2.26816-9.4976-12.1088-15.57504-21.66784-13.30688a18.00192 18.00192 0 0 0-13.31712 21.6576l4.48512 18.80576-18.69312-4.992c-9.42592-2.46272-19.5072 3.35872-22.016 12.71808a18.00192 18.00192 0 0 0 12.72832 22.01088l16.72192 4.46464-12.57472 11.89376a17.98656 17.98656 0 0 0-0.70144 25.40544 18.08384 18.08384 0 0 0 13.06624 5.61664c4.61312 0 9.00096-1.7408 12.35968-4.91008l13.33248-12.60544 4.27008 17.83808z m-102.71232 66.4064l-16.72192-4.46464 12.57472-11.88864a17.83808 17.83808 0 0 0 5.61664-12.55424 17.84832 17.84832 0 0 0-4.91008-12.8512c-6.55872-6.92224-18.49344-7.23456-25.4208-0.69632l-13.33248 12.60544-4.25984-17.84832c-2.26816-9.49248-12.13952-15.58528-21.66272-13.30688a17.9968 17.9968 0 0 0-13.32736 21.6576l4.49024 18.80064-18.688-4.992c-9.40544-2.46272-19.51232 3.35872-22.02112 12.71808a18.00192 18.00192 0 0 0 12.72832 22.01088l16.72704 4.46464-12.57472 11.88864c-3.49184 3.3024-5.48352 7.7568-5.61664 12.55424s1.6128 9.36448 4.91008 12.8512a18.05312 18.05312 0 0 0 13.06624 5.61664 17.92 17.92 0 0 0 12.35968-4.91008l13.3376-12.61056 4.25984 17.84832a17.91488 17.91488 0 0 0 17.47968 13.7984 17.9968 17.9968 0 0 0 17.50528-22.14912l-4.48512-18.80064 18.688 4.992a18.00192 18.00192 0 0 0 22.02112-12.7232 18.02752 18.02752 0 0 0-12.74368-22.01088z m776.05376-126.38208l-16.72192-4.46976 12.57472-11.88864a17.9968 17.9968 0 0 0 0.70144-25.41568c-6.53824-6.91712-18.4832-7.2448-25.4208-0.69632l-13.3376 12.61056-4.25984-17.8432c-2.26816-9.4976-12.11392-15.58528-21.66784-13.31712a17.84832 17.84832 0 0 0-11.14112 8.06912 17.83808 17.83808 0 0 0-2.17088 13.58848l4.48512 18.80064-18.688-4.992c-9.42592-2.46272-19.51232 3.35872-22.02112 12.7232a18.00192 18.00192 0 0 0 12.72832 22.01088l16.72192 4.46464-12.57472 11.88864a17.98656 17.98656 0 0 0-0.70144 25.40544 18.06336 18.06336 0 0 0 13.07136 5.61664c4.61312 0 9.00096-1.7408 12.35456-4.91008l13.33248-12.60544 4.25984 17.8432a17.91488 17.91488 0 0 0 17.47968 13.7984c1.40288 0 2.81088-0.16896 4.18304-0.49152a17.88928 17.88928 0 0 0 11.15136-8.064 17.8176 17.8176 0 0 0 2.17088-13.58848l-4.49024-18.80064 18.69312 4.992a17.98656 17.98656 0 0 0 22.016-12.73344 17.83808 17.83808 0 0 0-1.80736-13.63456 17.82272 17.82272 0 0 0-10.92096-8.36096z m-161.18784 123.29984l-16.7168-4.46464 12.57984-11.89376a18.00704 18.00704 0 0 0 0.69632-25.41568c-6.5536-6.91712-18.49856-7.2448-25.42592-0.69632l-13.33248 12.60544-4.25984-17.8432c-1.28512-5.38624-5.04832-9.61024-9.78432-11.904 0.39936-0.51712 0.83968-0.9984 1.18784-1.5616a17.83808 17.83808 0 0 0 2.17088-13.58848l-4.49024-18.80576 18.69824 4.99712a17.99168 17.99168 0 0 0 22.01088-12.73344 17.8176 17.8176 0 0 0-1.80736-13.63456 17.86368 17.86368 0 0 0-10.92608-8.3712l-16.7168-4.46464 12.57472-11.88864a18.00704 18.00704 0 0 0 0.69632-25.41568c-6.5536-6.91712-18.4832-7.23456-25.42592-0.69632l-13.33248 12.60544-4.25984-17.8432c-2.26304-9.48736-12.10368-15.56992-21.66272-13.31712a17.8688 17.8688 0 0 0-11.15136 8.06912 17.83808 17.83808 0 0 0-2.17088 13.58848l4.49024 18.80064-18.688-4.992c-9.41568-2.44736-19.51232 3.35872-22.02112 12.7232a18.00192 18.00192 0 0 0 12.73344 22.01088l16.72192 4.46464-12.57472 11.88864c-3.49184 3.3024-5.48352 7.7568-5.61664 12.55424s1.60768 9.36448 4.9152 12.8512a18.05824 18.05824 0 0 0 13.07136 5.61664c4.61824 0 9.00096-1.7408 12.35456-4.91008l13.3376-12.61056 4.25984 17.8432a17.85344 17.85344 0 0 0 9.71264 11.98592c-0.37376 0.49152-0.7936 0.94208-1.12128 1.47456a17.8176 17.8176 0 0 0-2.17088 13.58848l4.49024 18.80064-18.688-4.992c-9.4208-2.44736-19.51232 3.35872-22.02112 12.7232a18.00192 18.00192 0 0 0 12.72832 22.01088l16.72192 4.46976-12.57472 11.88864c-3.49184 3.3024-5.48352 7.7568-5.61664 12.55424s1.6128 9.36448 4.9152 12.8512a18.06336 18.06336 0 0 0 13.06624 5.61664c4.61312 0 9.00096-1.7408 12.35456-4.91008l13.3376-12.61056 4.25984 17.8432a17.91488 17.91488 0 0 0 17.47968 13.7984c1.40288 0 2.81088-0.16384 4.18816-0.49152a17.8688 17.8688 0 0 0 11.14112-8.064 17.83808 17.83808 0 0 0 2.17088-13.58848l-4.48512-18.80064 18.69312 4.992a17.9968 17.9968 0 0 0 22.016-12.72832 17.8176 17.8176 0 0 0-1.80736-13.63456 17.90464 17.90464 0 0 0-10.92608-8.3456z m-190.58688 0l-16.72192-4.46976 12.57472-11.88864a17.9968 17.9968 0 0 0 0.70144-25.41568c-6.56384-6.92736-18.50368-7.2448-25.42592-0.69632l-13.33248 12.60544-4.25984-17.8432c-2.26816-9.49248-12.09856-15.58528-21.66784-13.31712a17.83296 17.83296 0 0 0-11.14112 8.06912 17.8176 17.8176 0 0 0-2.17088 13.58848l4.48512 18.80576-18.69312-4.992c-9.4208-2.45248-19.5072 3.35872-22.016 12.7232a17.83808 17.83808 0 0 0 1.80224 13.63456 17.89952 17.89952 0 0 0 10.9312 8.37632l16.72192 4.46464-12.57472 11.88864a17.83808 17.83808 0 0 0-5.61664 12.55424 17.88928 17.88928 0 0 0 4.91008 12.8512 18.09408 18.09408 0 0 0 13.07136 5.61664c4.61312 0 9.00096-1.7408 12.35968-4.91008l13.33248-12.60544 4.25984 17.8432a17.91488 17.91488 0 0 0 17.47968 13.7984 17.98656 17.98656 0 0 0 17.5104-22.13888l-4.49024-18.80064 18.69312 4.992a18.00192 18.00192 0 0 0 22.016-12.72832 17.8176 17.8176 0 0 0-1.80736-13.63456 17.8688 17.8688 0 0 0-10.9312-8.3712z" p-id="10671" fill="#ffffff"></path>
</svg>