<?xml version="1.0" standalone="no"?>
<!DOCTYPE svg PUBLIC "-//W3C//DTD SVG 1.1//EN" "http://www.w3.org/Graphics/SVG/1.1/DTD/svg11.dtd">
<svg t="1522834078308" class="icon" style="" viewBox="0 0 1024 1024" version="1.1"
  xmlns="http://www.w3.org/2000/svg" p-id="8208"
  xmlns:xlink="http://www.w3.org/1999/xlink" width="80" height="80">
  <defs>
    <style type="text/css"></style>
  </defs>
  <path d="M288 672h448a160 160 0 0 0 0-320 224 224 0 0 0-448 0 160 160 0 0 0 0 320z m0 64a224 224 0 0 1-58.496-440.288C255.68 163.616 372.224 64 512 64c139.808 0 256.32 99.616 282.496 231.712A224 224 0 0 1 736 736H288z m320.192 105.376V816a16 16 0 0 1 32 0v25.376l17.92-17.92a16 16 0 0 1 22.656 22.592L662.848 864h25.344a16 16 0 1 1 0 32h-25.376l17.92 17.92a16 16 0 0 1-22.592 22.656l-17.952-17.92V944a16 16 0 1 1-32 0v-25.376l-17.92 17.92a16 16 0 0 1-22.656-22.592L585.536 896h-25.344a16 16 0 0 1 0-32h25.376l-17.92-17.92a16 16 0 1 1 22.592-22.656l17.952 17.92z m224 0V816a16 16 0 0 1 32 0v25.376l17.92-17.92a16 16 0 0 1 22.656 22.592L886.848 864h25.344a16 16 0 1 1 0 32h-25.376l17.92 17.92a16 16 0 0 1-22.592 22.656l-17.952-17.92V944a16 16 0 1 1-32 0v-25.376l-17.92 17.92a16 16 0 0 1-22.656-22.592L809.536 896h-25.344a16 16 0 0 1 0-32h25.376l-17.92-17.92a16 16 0 1 1 22.592-22.656l17.952 17.92z m-447.36 0V816a16 16 0 1 1 32 0v25.376l17.92-17.92a16 16 0 0 1 22.656 22.592L439.488 864h25.344a16 16 0 1 1 0 32h-25.376l17.952 17.92a16 16 0 0 1-22.624 22.656l-17.92-17.92V944a16 16 0 1 1-32 0v-25.376l-17.952 17.92a16 16 0 0 1-22.656-22.592L362.24 896h-25.376a16 16 0 1 1 0-32h25.376l-17.92-17.92a16 16 0 1 1 22.624-22.656l17.92 17.92z m-223.36 0V816a16 16 0 1 1 32 0v25.376l17.952-17.92a16 16 0 0 1 22.624 22.592L216.128 864h25.376a16 16 0 1 1 0 32h-25.376l17.92 17.92a16 16 0 0 1-22.624 22.656l-17.92-17.92V944a16 16 0 1 1-32 0v-25.376l-17.952 17.92a16 16 0 0 1-22.624-22.592L138.848 896h-25.344a16 16 0 1 1 0-32h25.344l-17.92-17.92a16 16 0 0 1 22.624-22.656l17.92 17.92z" fill="#ffffff" p-id="8209"></path>
</svg>