<?xml version="1.0" standalone="no"?>
<!DOCTYPE svg PUBLIC "-//W3C//DTD SVG 1.1//EN" "http://www.w3.org/Graphics/SVG/1.1/DTD/svg11.dtd">
<svg t="1522822819280" class="icon" style="" viewBox="0 0 1024 1024" version="1.1"
  xmlns="http://www.w3.org/2000/svg" p-id="1165"
  xmlns:xlink="http://www.w3.org/1999/xlink" width="80" height="80">
  <defs>
    <style type="text/css"></style>
  </defs>
  <path d="M241.344 768h317.312A113.152 113.152 0 0 0 672 655.04c0-62.368-50.752-112.928-113.344-112.928C558.656 454.784 487.616 384 400 384s-158.656 70.784-158.656 158.112A113.152 113.152 0 0 0 128 655.072C128 717.44 178.752 768 241.344 768zM232 832c-92.8 0-168-76.416-168-170.656 0-78.848 52.608-145.184 124.128-164.8C207.744 395.904 295.168 320 400 320c104.832 0 192.256 75.904 211.872 176.544C683.392 516.16 736 582.496 736 661.344 736 755.584 660.8 832 568 832H232z m362.56-485.92a128 128 0 0 1 168.768 191.616c-5.888 5.76-13.92 9.376-22.784 9.376a32 32 0 0 1-21.312-55.872 64 64 0 0 0-86.08-94.08 32 32 0 0 1-38.592-51.04zM960 476.8a32 32 0 0 1-32 32h-32a32 32 0 1 1 0-64h32a32 32 0 0 1 32 32zM598.208 189.632a32 32 0 0 1 38.4 23.968l7.168 31.168a32 32 0 0 1-62.336 14.4L574.24 228a32 32 0 0 1 24-38.4zM868.896 252a32 32 0 0 1 4.736 44.992l-20.16 24.864a32 32 0 1 1-49.696-40.256l20.16-24.896A32 32 0 0 1 868.928 252z" fill="#ffffff" p-id="1166"></path>
</svg>