<?xml version="1.0" standalone="no"?>
<!DOCTYPE svg PUBLIC "-//W3C//DTD SVG 1.1//EN" "http://www.w3.org/Graphics/SVG/1.1/DTD/svg11.dtd">
<svg t="1522823323729" class="icon" style="" viewBox="0 0 1024 1024" version="1.1"
  xmlns="http://www.w3.org/2000/svg" p-id="1465"
  xmlns:xlink="http://www.w3.org/1999/xlink" width="80" height="80">
  <defs>
    <style type="text/css"></style>
  </defs>
  <path d="M288 400a32 32 0 1 1 0-64 32 32 0 0 1 0 64z m224 0a32 32 0 1 1 0-64 32 32 0 0 1 0 64z m224 0a32 32 0 1 1 0-64 32 32 0 0 1 0 64zM160 528a32 32 0 1 1 0-64 32 32 0 0 1 0 64z m234.656 0a32 32 0 1 1 0-64 32 32 0 0 1 0 64z m234.688 0a32 32 0 1 1 0-64 32 32 0 0 1 0 64zM864 528a32 32 0 1 1 0-64 32 32 0 0 1 0 64zM160 272a32 32 0 1 1 0-64 32 32 0 0 1 0 64z m234.656 0a32 32 0 1 1 0-64 32 32 0 0 1 0 64z m234.688 0a32 32 0 1 1 0-64 32 32 0 0 1 0 64zM864 272a32 32 0 1 1 0-64 32 32 0 0 1 0 64zM96 624h832a32 32 0 0 1 0 64H96a32 32 0 0 1 0-64z m0 128h832a32 32 0 0 1 0 64H96a32 32 0 0 1 0-64z" fill="#ffffff" p-id="1466"></path>
</svg>