<?xml version="1.0" standalone="no"?>
<!DOCTYPE svg PUBLIC "-//W3C//DTD SVG 1.1//EN" "http://www.w3.org/Graphics/SVG/1.1/DTD/svg11.dtd">
<svg t="1522834140584" class="icon" style="" viewBox="0 0 1024 1024" version="1.1"
  xmlns="http://www.w3.org/2000/svg" p-id="9683"
  xmlns:xlink="http://www.w3.org/1999/xlink" width="80" height="80">
  <defs>
    <style type="text/css"></style>
  </defs>
  <path d="M288 672h448a160 160 0 0 0 0-320 224 224 0 0 0-448 0 160 160 0 0 0 0 320z m0 64a224 224 0 0 1-58.496-440.288C255.68 163.616 372.224 64 512 64c139.808 0 256.32 99.616 282.496 231.712A224 224 0 0 1 736 736H288z m352 105.376V816a16 16 0 1 1 32 0v25.376l17.92-17.92a16 16 0 0 1 22.656 22.592L694.656 864H720a16 16 0 1 1 0 32h-25.376l17.92 17.92a16 16 0 0 1-22.592 22.656L672 918.656V944a16 16 0 1 1-32 0v-25.376l-17.92 17.92a16 16 0 0 1-22.656-22.592L617.344 896H592a16 16 0 1 1 0-32h25.376l-17.92-17.92a16 16 0 0 1 22.592-22.656L640 841.344zM352 816a16 16 0 1 1 32 0v25.376l17.92-17.92a16 16 0 0 1 22.656 22.592L406.656 864H432a16 16 0 1 1 0 32h-25.376l17.92 17.92a16 16 0 0 1-22.592 22.656L384 918.656V944a16 16 0 1 1-32 0v-25.376l-17.92 17.92a16 16 0 0 1-22.656-22.592L329.344 896H304a16 16 0 1 1 0-32h25.376l-17.92-17.92a16 16 0 0 1 22.592-22.656L352 841.344V816z" fill="#ffffff" p-id="9684"></path>
</svg>