<?xml version="1.0" standalone="no"?>
<!DOCTYPE svg PUBLIC "-//W3C//DTD SVG 1.1//EN" "http://www.w3.org/Graphics/SVG/1.1/DTD/svg11.dtd">
<svg t="1522834060780" class="icon" style="" viewBox="0 0 1024 1024" version="1.1"
  xmlns="http://www.w3.org/2000/svg" p-id="8025"
  xmlns:xlink="http://www.w3.org/1999/xlink" width="80" height="80">
  <defs>
    <style type="text/css"></style>
  </defs>
  <path d="M288 672h448a160 160 0 0 0 0-320 224 224 0 0 0-448 0 160 160 0 0 0 0 320z m0 64a224 224 0 0 1-58.496-440.288C255.68 163.616 372.224 64 512 64c139.808 0 256.32 99.616 282.496 231.712A224 224 0 0 1 736 736H288z m432 105.376V816a16 16 0 1 1 32 0v25.376l17.92-17.92a16 16 0 0 1 22.656 22.592L774.656 864H800a16 16 0 1 1 0 32h-25.376l17.92 17.92a16 16 0 0 1-22.592 22.656L752 918.656V944a16 16 0 1 1-32 0v-25.376l-17.92 17.92a16 16 0 0 1-22.656-22.592L697.344 896H672a16 16 0 1 1 0-32h25.376l-17.92-17.92a16 16 0 0 1 22.592-22.656L720 841.344z m-224 0V816a16 16 0 1 1 32 0v25.376l17.92-17.92a16 16 0 0 1 22.656 22.592L550.656 864H576a16 16 0 1 1 0 32h-25.376l17.92 17.92a16 16 0 0 1-22.592 22.656L528 918.656V944a16 16 0 1 1-32 0v-25.376l-17.92 17.92a16 16 0 0 1-22.656-22.592L473.344 896H448a16 16 0 1 1 0-32h25.376l-17.92-17.92a16 16 0 0 1 22.592-22.656L496 841.344z m-224 0V816a16 16 0 1 1 32 0v25.376l17.92-17.92a16 16 0 0 1 22.656 22.592L326.656 864H352a16 16 0 1 1 0 32h-25.376l17.92 17.92a16 16 0 0 1-22.592 22.656L304 918.656V944a16 16 0 1 1-32 0v-25.376l-17.92 17.92a16 16 0 0 1-22.656-22.592L249.344 896H224a16 16 0 1 1 0-32h25.376l-17.92-17.92a16 16 0 0 1 22.592-22.656L272 841.344z" fill="#ffffff" p-id="8026"></path>
</svg>